PathFileType	4	(X/Y/Z)	C:\Users\°ÂÌØÂü\Desktop\20210112\bx_y_10_501-Unnamed.trc
DataRate	CameraRate	NumFrames	NumMarkers	Units	OrigDataRate	OrigDataStartFrame	OrigNumFrames
50.00	50.00	       4	0	mm	50.00	470	       537
Frame#	Time	
		

470	9.380	-633.28674	-67.96765	1547.34302	-658.83447	286.26956	1538.30652	-620.80573	217.25504	1069.20020	-750.27454	247.61552	645.97766	-710.11725	142.26378	575.58954	-716.83307	-51.48157	720.75781	-821.88562	85.60247	1065.01331	-616.37781	-6.95651	1052.48828	-672.34882	-71.40169	873.55420	-677.38672	278.28894	881.78894	-680.72864	16.10522	522.34717	-751.59583	244.03413	578.20868	-790.32001	253.67265	503.76721	-695.84778	205.24203	535.86853	-587.91278	105.85189	1417.54749	-664.83942	-67.46377	163.11475	-706.98187	77.90329	577.79712	-773.62463	223.81085	204.14883	-882.61688	296.19727	144.63943	-675.59790	55.33142	159.00352	-604.08093	19.05662	167.32057	-676.99146	174.67125	158.79854	-596.20972	223.47386	174.06844	-666.79663	299.34366	159.29550	-629.47180	306.77505	161.33382	-561.93713	260.31821	165.37306	-528.08679	304.23312	146.60699	-653.48523	116.15122	1846.58752	-714.02844	153.77925	217.98648	-724.05420	269.23328	752.41821	-517.93488	-72.60889	142.88885	-561.72388	-40.33877	163.27811	-797.57166	173.16515	182.86253	-795.73090	54.49337	174.01369	-609.07837	-6.73917	806.65741	-775.34509	-37.50871	487.71075	-769.42303	-5.66349	206.74071	-875.96472	-78.76889	141.32753	-718.44403	-32.01715	618.66180	-731.02185	-28.50257	568.13861	-623.98309	-78.56065	158.57628	-617.74329	215.22072	819.45526	-718.89514	76.92323	217.53740	
471	9.400	-637.49591	-68.52677	1548.27100	-663.02423	285.68182	1538.17969	-618.09686	217.24966	1069.36035	-747.98718	246.87425	646.04645	-708.73981	142.11700	576.04089	-713.89423	-51.56981	720.47815	-818.99237	85.15582	1064.43188	-613.30206	-7.21451	1052.48743				-674.69958	278.19955	881.94794	-679.83521	16.02066	522.44653	-749.80286	244.13783	579.04236	-788.88330	252.91121	503.70410	-694.05426	205.07478	535.98248	-590.02722	105.25761	1419.38538	-664.90320	-67.36133	163.02069	-705.12274	77.25547	578.11218	-773.60559	223.74100	204.10626	-882.45520	296.03870	144.56952	-675.68469	55.37088	158.84375	-603.98944	19.06350	167.24846	-676.91901	174.55223	158.83122	-596.28192	223.59406	173.83235	-666.68671	299.28680	159.60405	-629.43463	306.72733	161.44127	-561.89575	260.24997	165.20573	-528.00739	304.49124	146.85538	-658.99188	115.50753	1847.24878	-714.02844	153.77925	217.98648	-721.53198	269.76169	752.73169	-517.83289	-72.60686	142.87444	-561.68036	-40.15692	163.28789	-797.53217	173.20924	182.95705	-794.76892	54.30707	173.50301	-606.32941	-6.15844	806.55292	-774.18811	-37.50301	488.06171	-769.52277	-5.64267	206.83287	-876.13934	-78.71100	141.67271	-716.36395	-31.91132	618.16595	-729.17987	-28.40945	568.12976	-623.91785	-78.51529	158.70905	-614.39880	215.13290	819.61584	-718.71271	77.16236	217.68558	
472	9.420	-641.17407	-69.16671	1548.39575	-667.02258	285.25803	1538.65918	-615.03400	217.10928	1069.66565	-746.15710	246.67737	646.31287	-706.88922	141.28957	576.03156	-711.96820	-52.66208	720.57288	-816.22961	84.66291	1063.50244	-610.51666	-7.88735	1052.89758	-665.40057	-72.03751	872.97351	-671.21857	277.97070	881.69189	-678.17743	15.79489	522.35461	-747.83954	243.35422	578.67261	-787.16833	252.63660	503.90326	-692.07037	205.27411	535.70721	-591.18823	105.19646	1420.57446	-664.84967	-67.33358	163.06044	-704.34344	77.37112	577.71606	-773.46240	223.37442	204.31526	-882.43616	296.14734	144.72641	-675.68469	55.37088	158.84375	-603.78308	19.10624	167.32755	-676.50195	174.13190	159.02724	-596.03430	223.37737	173.90326	-666.56775	299.16330	159.74059	-629.33154	306.62994	161.44876	-561.92651	260.17764	165.20319	-528.00299	304.30740	146.63148	-664.08759	114.74853	1847.93652	-713.68524	153.58443	218.05862	-718.76276	269.29825	752.28723	-518.06647	-72.24731	142.91441	-561.54456	-40.09793	163.29671	-797.53217	173.20924	182.95705	-794.47906	54.17698	173.34427	-603.54315	-6.41029	806.18958	-773.05292	-37.82158	488.02927	-769.27515	-5.64274	206.84555	-875.87164	-78.64655	141.31004	-714.30414	-32.05073	618.06586	-727.55334	-28.74126	568.24017	-623.85883	-78.66300	158.73932	-611.97400	215.11624	818.81561	-718.49316	77.38145	217.63779	
473	9.440	-645.09613	-69.84461	1548.69336	-670.68274	285.04712	1538.52612	-612.11694	216.82491	1070.07874	-743.81201	245.98764	646.54022	-704.82104	141.16780	576.01147	-708.71912	-52.25770	720.53766	-813.64990	84.58157	1063.06384	-607.13263	-8.00240	1052.33411	-662.84082	-72.06399	872.65289	-668.50598	277.39288	880.92554	-677.62701	15.51999	522.06689	-746.50000	243.10800	578.55994	-785.62567	252.34445	504.21030	-690.58124	205.14146	535.27435	-593.50629	104.48024	1421.89575	-664.84967	-67.33358	163.06044	-702.65015	76.90561	578.01801	-773.26862	223.33621	204.34344	-882.40680	296.07779	144.65472	-675.52954	55.34988	158.82549	-603.82861	19.29252	167.24860	-676.62781	174.54759	158.49529	-596.04694	223.30736	173.91718	-666.85699	299.16232	159.80748	-629.38739	306.64923	161.55597	-561.89575	260.24997	165.20573	-527.99841	304.00455	146.44089	-669.03394	113.83372	1848.30737	-713.25061	153.60706	217.61627	-716.24066	268.40210	752.68591	-517.87482	-72.67942	143.17351	-561.52795	-40.24541	163.35042	-797.29822	173.04622	183.12515	-795.66742	54.45630	174.05063	-601.15234	-5.64575	805.85559	-771.76257	-38.26474	488.23218	-769.02649	-5.75004	206.88551	-876.15759	-78.75391	141.60342	-712.14410	-32.26966	617.93115	-725.95154	-29.14188	567.83405	-623.92120	-78.58478	158.67026	-609.09790	214.86084	818.77069	-718.45056	77.26031	217.73787	
